<svg xmlns="http://www.w3.org/2000/svg" viewBox="0 0 64 64" fill="none">
  <rect width="64" height="64" rx="14" fill="#1B4332"/>
  <path d="M32 8 C32 8 14 18 14 34 C14 44 22 52 32 52 C42 52 50 44 50 34 C50 18 32 8 32 8Z" fill="#52B788" opacity="0.9"/>
  <path d="M32 8 C32 8 38 22 38 34 C38 42 36 48 32 52 C28 48 26 42 26 34 C26 22 32 8 32 8Z" fill="#D8F3DC" opacity="0.7"/>
  <line x1="32" y1="52" x2="32" y2="16" stroke="#1B4332" stroke-width="1.5" stroke-linecap="round" opacity="0.5"/>
  <circle cx="32" cy="34" r="3.5" fill="#D4A373"/>
  <circle cx="32" cy="34" r="1.5" fill="#1B4332"/>
</svg>
